 <svg  version="1.0" xmlns="http://www.w3.org/2000/svg"  width="300.000000pt" height="90.000000pt" viewBox="0 0 300.000000 90.000000"  preserveAspectRatio="xMidYMid meet">  <g transform="translate(0.000000,90.000000) scale(0.100000,-0.100000)" fill="#ff0000" stroke="none"> <path d="M40 848 c0 -17 76 -18 1450 -18 1279 0 1450 2 1450 15 0 13 -172 15 -1450 17 -1375 3 -1450 2 -1450 -14z"/> <path d="M114 746 c-40 -18 -64 -52 -64 -92 0 -45 27 -72 90 -93 63 -21 73 -44 22 -49 -27 -3 -39 3 -67 32 -19 20 -38 36 -44 36 -11 0 -15 -80 -5 -115 5 -19 14 -21 94 -23 132 -4 190 30 190 110 -1 47 -20 67 -90 92 -62 23 -77 38 -42 44 11 2 34 -9 51 -24 42 -35 54 -23 45 43 l-6 51 -72 1 c-39 0 -85 -6 -102 -13z m156 -17 c0 -4 3 -21 6 -39 l7 -32 -26 26 c-30 30 -77 35 -98 10 -17 -21 -2 -45 37 -57 102 -30 128 -60 104 -118 -17 -41 -76 -61 -166 -57 l-74 3 0 42 0 41 29 -29 c22 -22 39 -29 68 -29 44 0 63 14 63 46 0 18 -10 25 -57 40 -65 20 -93 44 -93 77 0 54 59 89 143 85 31 -2 57 -6 57 -9z"/> <path d="M344 748 c-3 -4 -8 -30 -11 -58 -5 -41 -3 -50 10 -50 9 0 22 8 29 18 33 46 38 36 38 -67 0 -85 -2 -101 -16 -101 -10 0 -14 -7 -12 -22 3 -22 9 -23 91 -26 84 -3 87 -3 87 19 0 12 -7 27 -15 33 -13 9 -15 30 -13 106 l3 95 32 -34 c36 -38 57 -34 49 10 -3 16 -8 41 -11 57 l-5 27 -126 0 c-69 0 -128 -3 -130 -7z m241 -29 c2 -9 6 -27 10 -40 7 -23 7 -23 -18 4 -14 15 -35 27 -47 27 -19 0 -20 -6 -20 -107 0 -110 4 -126 30 -136 8 -3 -21 -6 -65 -6 -59 0 -75 2 -62 10 15 9 17 26 17 124 0 106 -2 115 -19 115 -10 0 -30 -11 -43 -25 l-25 -25 11 40 10 41 110 -3 c92 -3 110 -6 111 -19z"/> <path d="M1695 753 c-62 -17 -95 -67 -95 -143 0 -72 35 -130 90 -152 14 -6 136 -12 272 -14 l246 -4 16 47 c18 51 21 93 7 93 -5 0 -27 -18 -49 -41 -29 -28 -48 -40 -64 -37 -20 3 -23 9 -26 56 -3 58 6 65 36 27 41 -52 64 -23 43 53 -10 34 3 46 14 12 3 -11 13 -20 21 -20 15 0 18 53 5 100 l-7 25 -129 -4 c-72 -1 -132 -5 -134 -7 -2 -2 1 -14 7 -27 23 -42 21 -237 -2 -237 -29 0 -37 92 -10 121 20 22 12 49 -16 49 -17 0 -20 6 -20 43 0 23 -4 47 -8 52 -7 11 -162 17 -197 8z m185 -46 c0 -27 0 -27 -25 -11 -37 24 -94 24 -123 -1 -18 -16 -26 -34 -29 -72 -9 -89 39 -155 101 -139 25 6 26 10 26 70 0 53 -3 65 -17 69 -10 3 14 5 52 6 42 0 65 -3 57 -8 -10 -6 -13 -29 -10 -86 l3 -78 -98 7 c-108 7 -145 20 -176 65 -29 41 -29 118 1 156 33 42 73 55 160 52 78 -2 78 -2 78 -30z m311 26 c0 -5 2 -21 4 -37 l4 -28 -22 20 c-27 25 -94 33 -107 12 -21 -32 -12 -50 24 -50 19 0 38 6 42 12 9 14 21 -19 23 -57 0 -18 0 -19 -10 -2 -6 11 -22 17 -45 17 l-35 0 3 -67 3 -68 37 -3 c29 -2 43 3 72 28 40 36 42 34 22 -15 l-15 -35 -112 0 c-88 0 -110 3 -101 12 8 8 12 51 12 128 0 77 -4 120 -12 128 -9 9 13 12 100 12 62 0 112 -3 113 -7z m-365 -49 c44 -21 43 -34 -1 -34 -27 0 -35 -4 -35 -18 0 -10 5 -23 11 -29 5 -5 9 -30 7 -54 -2 -36 -7 -44 -23 -44 -25 0 -65 59 -65 97 0 33 23 84 42 91 21 9 29 8 64 -9z m304 6 c0 -12 -35 -31 -43 -24 -3 3 -3 12 0 20 6 16 43 19 43 4z"/> <path d="M2710 742 c-57 -28 -78 -98 -42 -142 9 -11 42 -29 72 -39 60 -20 73 -44 27 -49 -33 -4 -73 19 -82 48 -3 11 -15 20 -26 20 -16 0 -19 -7 -19 -47 0 -89 0 -89 99 -91 134 -4 191 29 191 110 0 49 -23 72 -94 94 -31 10 -56 24 -56 31 0 21 36 15 68 -12 41 -34 52 -32 52 13 0 76 -4 80 -83 81 -50 1 -83 -4 -107 -17z m160 -17 c0 -5 3 -21 7 -35 l6 -24 -28 22 c-43 34 -97 27 -100 -13 -2 -16 16 -35 32 -35 8 0 36 -9 63 -21 54 -23 69 -53 50 -99 -18 -43 -72 -62 -163 -58 l-77 3 0 42 0 41 29 -29 c22 -22 39 -29 68 -29 44 0 63 14 63 46 0 19 -11 26 -66 44 -48 16 -68 29 -76 46 -29 62 37 116 135 112 31 -2 57 -7 57 -13z"/> <path d="M620 736 c0 -8 5 -18 10 -21 14 -9 13 -225 -1 -225 -6 0 -9 -10 -7 -22 3 -22 8 -23 75 -22 40 0 76 3 79 7 4 4 -1 22 -11 40 -9 18 -15 42 -13 52 4 17 7 15 26 -15 13 -21 19 -43 16 -57 -7 -27 -16 -25 155 -28 l123 -1 -5 32 c-7 41 1 74 19 74 7 0 25 -10 40 -23 24 -21 25 -25 13 -45 -7 -11 -10 -24 -6 -29 4 -4 67 -7 138 -8 134 -1 157 6 131 38 -11 14 -24 157 -14 156 4 0 33 -32 65 -71 40 -49 54 -75 47 -82 -5 -5 -10 -17 -10 -26 0 -24 98 -28 106 -5 4 9 2 21 -5 28 -14 14 -15 227 -1 227 6 0 10 9 10 20 0 19 -7 20 -150 20 -143 0 -150 -1 -150 -20 0 -11 5 -20 10 -20 7 0 10 -40 8 -112 -2 -93 -6 -113 -18 -113 -17 0 -88 190 -89 238 -1 27 -1 27 -76 27 -73 0 -75 -1 -75 -25 0 -30 -67 -203 -88 -227 -22 -26 -31 -22 -49 20 -8 20 -24 49 -35 65 l-20 27 26 31 c31 36 33 69 8 92 -26 23 -282 25 -282 3z m268 -19 c15 -16 15 -20 2 -44 -12 -21 -29 -35 -58 -50 -2 0 5 -11 15 -22 10 -12 32 -48 49 -81 l32 -60 -61 0 c-46 0 -58 3 -49 12 12 12 8 22 -35 90 -30 49 -53 42 -53 -16 0 -23 7 -52 16 -64 l15 -22 -62 0 c-49 0 -60 3 -51 12 17 17 17 239 0 257 -22 22 217 10 240 -12z m304 10 c-8 -9 -2 -39 24 -112 19 -55 41 -112 49 -127 l14 -28 -66 0 c-52 0 -64 3 -55 12 20 20 14 45 -19 72 -35 30 -77 34 -86 9 -4 -10 -7 -35 -8 -55 0 -37 -1 -38 -37 -38 l-38 0 20 20 c11 11 20 25 20 31 0 6 7 27 16 47 53 121 63 152 58 167 -5 12 5 15 56 15 50 0 60 -3 52 -13z m274 -3 c-4 -9 7 -34 26 -61 l33 -46 3 49 c3 37 -1 51 -14 61 -16 11 -12 13 26 13 34 0 41 -3 32 -12 -17 -17 -17 -239 0 -256 9 -9 4 -12 -26 -12 -31 0 -36 2 -27 14 6 7 8 22 4 32 -10 29 -139 184 -153 184 -3 0 -6 -43 -8 -96 -2 -79 0 -100 14 -115 16 -18 16 -19 -21 -19 -30 0 -36 3 -27 12 8 8 12 51 12 128 0 77 -4 120 -12 128 -9 9 5 12 66 12 67 0 77 -2 72 -16z"/> <path d="M747 703 c-10 -9 -9 -93 1 -93 14 0 52 31 63 51 7 15 7 24 -2 35 -12 14 -51 19 -62 7z m47 -22 c3 -4 -3 -16 -14 -26 -19 -18 -20 -17 -20 8 0 26 22 38 34 18z"/> <path d="M1092 652 c-16 -34 -16 -65 1 -59 6 2 20 -2 30 -11 21 -19 23 -4 4 50 -17 50 -20 51 -35 20z"/> <path d="M2240 736 c0 -8 5 -18 10 -21 15 -9 13 -211 -2 -235 -18 -28 -4 -35 72 -35 76 0 90 7 72 35 -7 11 -12 34 -12 52 l1 33 19 -35 c10 -19 16 -45 14 -56 -7 -27 6 -32 90 -31 73 0 91 13 64 45 -8 9 -28 42 -45 72 l-31 56 24 27 c29 34 31 68 6 90 -26 23 -282 25 -282 3z m264 -15 c24 -20 20 -39 -15 -73 l-31 -31 21 -27 c11 -15 31 -51 44 -79 l25 -51 -61 0 c-46 0 -58 3 -50 11 19 19 -47 137 -68 123 -13 -8 -11 -108 3 -122 9 -9 -2 -12 -52 -12 -50 0 -61 3 -52 12 17 17 17 254 0 262 -7 3 40 4 104 3 77 -2 122 -8 132 -16z"/> <path d="M2367 703 c-10 -9 -9 -93 1 -93 14 0 52 31 63 51 7 15 7 24 -2 35 -12 14 -51 19 -62 7z m47 -22 c3 -4 -3 -16 -14 -26 -19 -18 -20 -17 -20 8 0 26 22 38 34 18z"/> <path d="M2572 698 c3 -51 4 -53 33 -53 29 0 30 2 33 53 l3 52 -36 0 -36 0 3 -52z m48 2 c0 -29 -4 -40 -15 -40 -11 0 -15 11 -15 40 0 29 4 40 15 40 11 0 15 -11 15 -40z"/> <path d="M40 350 c0 -19 7 -20 260 -20 253 0 260 1 260 20 0 19 -7 20 -260 20 -253 0 -260 -1 -260 -20z"/> <path d="M2410 350 c0 -19 7 -20 265 -20 258 0 265 1 265 20 0 19 -7 20 -265 20 -258 0 -265 -1 -265 -20z"/> <path d="M636 352 c-3 -5 -8 -32 -12 -60 -6 -48 -5 -52 14 -52 12 0 23 8 27 19 5 16 35 38 39 29 1 -2 0 -47 -2 -100 -3 -77 -6 -98 -18 -98 -8 0 -14 -9 -14 -20 0 -19 7 -20 95 -20 86 0 95 2 95 19 0 10 -9 21 -20 24 -18 5 -20 14 -20 101 0 53 4 96 9 96 5 0 18 -11 29 -25 11 -14 28 -25 37 -25 15 0 16 6 10 46 -11 78 -4 74 -140 74 -68 0 -126 -4 -129 -8z m248 -34 c12 -45 7 -53 -17 -30 -13 12 -33 22 -45 22 -21 0 -22 -4 -22 -109 0 -102 2 -111 22 -125 21 -15 18 -16 -57 -16 -75 0 -78 1 -57 16 20 14 22 23 22 125 0 107 0 109 -23 109 -13 0 -33 -9 -45 -20 -24 -23 -27 -15 -12 24 9 26 11 26 119 26 104 0 109 -1 115 -22z"/> <path d="M913 344 c-3 -8 -1 -20 6 -27 14 -14 15 -227 1 -227 -5 0 -10 -9 -10 -20 0 -18 7 -20 80 -20 73 0 80 2 80 20 0 11 -4 20 -10 20 -6 0 -10 28 -10 65 0 63 1 65 25 65 24 0 25 -2 25 -65 0 -37 -4 -65 -10 -65 -5 0 -10 -9 -10 -20 0 -19 7 -20 214 -20 222 0 244 4 212 39 -12 13 -16 37 -16 92 l1 74 22 -30 c12 -16 40 -49 61 -73 34 -38 38 -46 28 -63 -21 -33 -14 -39 48 -39 62 0 77 13 45 40 -22 19 -21 196 1 221 9 10 14 25 11 33 -9 22 -616 22 -624 -1 -3 -8 -1 -19 6 -26 19 -19 12 -37 -14 -37 -25 0 -35 23 -15 35 6 3 10 15 10 26 0 17 -7 19 -75 19 -59 0 -77 -3 -82 -16z m129 -16 c-7 -7 -12 -23 -12 -38 0 -24 2 -25 50 -22 48 4 50 5 43 30 -3 15 -11 30 -17 34 -6 4 18 8 54 8 50 0 61 -3 52 -12 -8 -8 -12 -51 -12 -130 0 -101 2 -118 18 -127 13 -8 0 -10 -52 -11 -54 0 -66 3 -58 13 6 7 12 46 13 87 l2 75 -46 3 -47 3 0 -78 c0 -48 5 -84 12 -91 9 -9 -2 -12 -49 -12 l-62 0 15 28 c11 21 13 49 8 127 -4 55 -11 106 -16 113 -8 9 4 12 53 12 49 0 60 -3 51 -12z m336 1 c-16 -9 -18 -26 -18 -127 0 -79 4 -122 12 -130 9 -9 -2 -12 -52 -12 -62 0 -63 0 -46 19 15 17 17 36 14 131 -2 85 -7 113 -18 120 -10 7 7 10 55 10 52 -1 66 -3 53 -11z m195 0 c-8 -8 -3 -23 20 -55 17 -24 34 -44 37 -44 12 0 2 93 -11 101 -9 6 2 9 30 9 42 0 43 -1 28 -18 -24 -26 -25 -223 -1 -246 14 -15 12 -16 -26 -16 -37 0 -40 2 -26 15 9 10 12 23 8 34 -9 24 -142 181 -154 181 -12 0 -10 -198 2 -205 21 -13 9 -25 -26 -25 -34 0 -35 1 -20 22 23 32 23 220 0 242 -14 15 -8 16 67 16 61 0 80 -3 72 -11z m-310 -26 c4 -15 2 -181 -2 -205 0 -5 -10 -8 -21 -8 -19 0 -20 7 -20 108 0 60 3 112 7 115 12 13 32 7 36 -10z m151 11 c22 -8 24 -205 2 -223 -24 -20 -33 10 -34 114 0 117 1 121 32 109z"/> <path d="M1773 343 c-47 -24 -77 -90 -69 -151 7 -54 28 -87 76 -120 30 -20 45 -22 151 -22 97 0 119 3 119 14 0 8 -4 18 -10 21 -17 10 -12 106 6 126 18 20 11 39 -15 39 -15 0 -20 11 -25 54 l-7 54 -97 0 c-70 1 -106 -4 -129 -15z m207 -18 c0 -5 3 -21 6 -35 5 -22 4 -23 -8 -9 -38 46 -107 52 -143 13 -33 -35 -35 -122 -5 -172 19 -30 24 -33 63 -30 l42 3 3 58 c2 44 0 59 -12 63 -31 12 -15 19 49 21 38 2 65 -1 65 -7 0 -6 -7 -10 -15 -10 -12 0 -15 -14 -15 -68 0 -41 5 -73 13 -81 10 -11 -5 -13 -85 -8 -113 7 -156 23 -188 67 -49 69 -29 164 43 196 36 16 187 15 187 -1z m-33 -50 l28 -24 -42 -1 c-35 0 -43 -3 -43 -19 0 -10 7 -21 15 -25 20 -7 20 -79 0 -96 -12 -10 -20 -7 -45 18 -24 25 -30 39 -30 75 0 86 60 123 117 72z"/> <path d="M2112 340 c-37 -23 -56 -63 -47 -100 10 -38 32 -58 89 -76 67 -22 69 -23 55 -40 -22 -26 -60 -16 -101 27 -22 24 -43 38 -48 33 -5 -5 -6 -37 -3 -71 l6 -61 82 -7 c71 -6 89 -4 129 14 52 22 78 66 69 113 -7 36 -29 55 -93 76 -30 10 -56 24 -58 30 -6 20 46 14 68 -8 36 -36 50 -26 50 35 l0 55 -82 0 c-65 0 -90 -4 -116 -20z m178 -19 c0 -9 3 -27 6 -41 l6 -25 -26 28 c-47 48 -131 29 -99 -22 6 -9 32 -22 59 -30 57 -15 73 -26 85 -59 13 -34 -12 -75 -60 -97 -33 -14 -54 -16 -108 -11 -37 4 -68 8 -69 9 -1 1 -4 25 -8 52 -4 34 -3 43 3 29 25 -59 115 -85 145 -42 22 31 5 53 -51 68 -50 13 -93 44 -93 66 0 28 24 64 54 78 43 22 156 20 156 -3z"/> </g> </svg> 